<?xml version="1.0" encoding="utf-8"?>
<!-- Generator: Adobe Illustrator 18.0.0, SVG Export Plug-In . SVG Version: 6.00 Build 0)  -->
<!DOCTYPE svg PUBLIC "-//W3C//DTD SVG 1.1//EN" "http://www.w3.org/Graphics/SVG/1.1/DTD/svg11.dtd">
<svg version="1.1" id="Capa_1" xmlns="http://www.w3.org/2000/svg" xmlns:xlink="http://www.w3.org/1999/xlink" x="0px" y="0px"
	 viewBox="0 0 254.3 77.8" enable-background="new 0 0 254.3 77.8" xml:space="preserve">
<g>
	<path fill="#4A4797" d="M24,46.2c0.8,0,1.6-0.1,2.2-0.3c0.6-0.2,1.2-0.5,1.6-0.8c0.5-0.3,0.8-0.5,1.2-0.8c0.3-0.2,0.6-0.3,0.9-0.3
		c0.7,0,1,0.4,1,1.3c0,0.2,0,0.5-0.1,0.8c-0.1,0.4-0.2,0.7-0.3,1.1c-0.1,0.4-0.3,0.8-0.5,1.1c-0.2,0.3-0.3,0.6-0.5,0.8
		c-0.1,0.1-0.4,0.4-0.8,0.7c-0.4,0.3-0.8,0.6-1.4,0.9c-0.6,0.3-1.3,0.6-2.1,0.8c-0.8,0.2-1.7,0.4-2.7,0.4c-1.1,0-2.2-0.2-3.4-0.5
		c-1.2-0.3-2.2-0.9-3.2-1.7c-0.9-0.8-1.7-1.9-2.3-3.3c-0.6-1.4-0.9-3.1-0.9-5.2c0-0.7,0-1.6,0.2-2.6c0.1-1,0.3-1.9,0.6-3
		c0.3-1,0.7-2,1.3-3c0.5-1,1.2-1.9,2.1-2.6c0.9-0.8,2-1.4,3.2-1.9c1.2-0.5,2.7-0.7,4.4-0.7c1.4,0,2.6,0.2,3.6,0.5
		c1,0.3,1.9,0.8,2.5,1.3c0.7,0.6,1.2,1.2,1.5,2c0.3,0.7,0.5,1.5,0.5,2.4c0,1.5-0.5,2.7-1.5,3.4c-1,0.7-2.3,1.1-4.1,1.1
		c-0.4,0-0.7,0-0.9-0.1c-0.2-0.1-0.2-0.2-0.2-0.5c0-0.7,0-1.3,0-1.8c0-0.5-0.1-1-0.2-1.4c-0.1-0.4-0.3-0.7-0.6-0.9
		c-0.3-0.2-0.6-0.3-1.1-0.3c-0.9,0-1.6,0.3-2.1,0.9c-0.5,0.6-0.9,1.3-1.2,2.1c-0.3,0.8-0.4,1.7-0.5,2.5C20,39.4,20,40.1,20,40.7
		c0,2,0.3,3.4,1,4.2C21.6,45.8,22.6,46.2,24,46.2z"/>
	<path fill="#4A4797" d="M39.4,51.4c-0.9,0-1.6-0.1-2.2-0.3c-0.6-0.2-1-0.5-1.3-0.8c-0.3-0.3-0.6-0.8-0.7-1.3
		C35.1,48.6,35,48,35,47.4c0-0.4,0-1,0.1-1.8c0-0.8,0.1-1.9,0.2-3.3c0.1-1.4,0.3-3.1,0.4-5.3c0.2-2.1,0.3-4.8,0.6-7.9
		c0-0.6,0.1-1,0.2-1.1c0.1-0.1,0.3-0.1,0.7-0.1h1.7c0.9,0,1.6,0.1,2.2,0.3c0.6,0.2,1,0.4,1.3,0.8c0.3,0.3,0.6,0.8,0.7,1.2
		c0.1,0.5,0.2,1,0.2,1.6c0,0.4,0,1.1-0.1,1.9c-0.1,0.9-0.1,2-0.2,3.5c-0.1,1.5-0.2,3.3-0.4,5.5s-0.4,4.8-0.6,7.9
		c0,0.3-0.1,0.6-0.2,0.7s-0.4,0.2-0.7,0.2H39.4z M36.3,22.8c0-1.1,0.4-2,1.2-2.7c0.8-0.7,1.9-1,3.3-1c1.2,0,2.1,0.3,2.7,0.8
		c0.6,0.5,0.8,1.2,0.8,2c0,1.1-0.4,1.9-1.2,2.6c-0.8,0.7-1.9,1.1-3.5,1.1C37.5,25.5,36.3,24.6,36.3,22.8z"/>
	<path fill="#4A4797" d="M56.2,33.6c-0.1,1.1-0.2,2.2-0.3,3.2c-0.1,1.1-0.2,2.1-0.3,3c-0.1,0.9-0.2,1.8-0.2,2.5
		c0,0.7-0.1,1.3-0.1,1.7c0,0.7,0.1,1.2,0.3,1.5c0.2,0.2,0.5,0.4,0.9,0.4c0.3,0,0.6-0.1,0.8-0.2c0.2-0.1,0.4-0.2,0.6-0.4
		c0.2-0.1,0.4-0.3,0.5-0.4c0.2-0.1,0.3-0.2,0.5-0.2c0.2,0,0.4,0.1,0.6,0.3s0.3,0.8,0.3,1.6c0,1.6-0.4,2.8-1.3,3.7s-2.3,1.4-4.4,1.4
		c-2.1,0-3.6-0.5-4.6-1.4c-1-1-1.5-2.4-1.5-4.4c0-0.4,0-0.9,0.1-1.5c0-0.6,0.1-1.4,0.2-2.3c0.1-0.9,0.2-2.1,0.3-3.5
		c0.1-1.4,0.3-3.1,0.4-5.1h-2.3c-0.2,0-0.4,0-0.4-0.2c0-0.1-0.1-0.3-0.1-0.5l0.1-2.2c0-0.4,0.1-0.7,0.2-1.1c0.1-0.4,0.2-0.7,0.4-1
		c0.2-0.3,0.5-0.5,0.9-0.7c0.4-0.2,0.9-0.3,1.6-0.3c0.2-0.5,0.4-1.1,0.7-1.8c0.3-0.7,0.5-1.4,0.8-2.1c0.3-0.7,0.5-1.2,0.8-1.7
		c0.2-0.5,0.5-0.7,0.7-0.7h1.2c1.2,0,2,0.4,2.5,1.1c0.5,0.7,0.7,1.6,0.7,2.7c0,0.6,0,1.4-0.1,2.5h4.5c0.5,0,0.7,0.2,0.7,0.6
		l-0.2,2.3c-0.1,0.9-0.3,1.6-0.7,2.1c-0.4,0.5-1.3,0.8-2.6,0.8H56.2z"/>
	<path fill="#4A4797" d="M72.3,31.8c0,0.7,0,1.4-0.1,2.3s-0.2,1.8-0.3,2.7c-0.1,0.9-0.2,1.7-0.3,2.5c-0.1,0.8-0.1,1.4-0.1,1.8
		c0,1.1,0.3,1.9,0.8,2.4c0.5,0.5,1.2,0.8,2,0.8c1.3,0,2.4-0.7,3.2-2.1c0.8-1.4,1.3-3.3,1.5-5.6l0.7-8c0-0.3,0.1-0.5,0.3-0.7
		c0.2-0.1,0.4-0.2,0.6-0.2h1.5c0.6,0,1.2,0,1.7,0.1c0.5,0.1,1,0.3,1.4,0.6c0.4,0.3,0.7,0.6,0.9,1.1c0.2,0.5,0.3,1,0.3,1.8
		c0,0.3,0,0.8-0.1,1.6c0,0.8-0.1,1.9-0.2,3.4c-0.1,1.5-0.2,3.3-0.4,5.6s-0.4,5-0.6,8.2c-0.1,1.9-0.6,3.5-1.3,4.7
		c-0.7,1.2-1.6,2.2-2.6,3c-1.1,0.7-2.2,1.2-3.6,1.5c-1.3,0.3-2.7,0.4-4,0.4c-1.5,0-2.8-0.1-4-0.4s-2.3-0.6-3.2-1.1
		c-0.9-0.5-1.6-1-2.1-1.6c-0.5-0.6-0.8-1.2-0.8-1.9c0-0.5,0.1-1,0.4-1.4c0.2-0.4,0.6-0.7,1-1c0.4-0.3,0.9-0.5,1.4-0.6
		c0.5-0.1,1.1-0.2,1.7-0.2c0.3,0,0.5,0.1,0.6,0.4c0.1,0.3,0.3,0.6,0.6,1c0.3,0.4,0.7,0.7,1.3,1c0.6,0.3,1.5,0.4,2.7,0.4
		c1.1,0,1.9-0.3,2.6-0.8c0.7-0.5,1.2-1.2,1.5-2c0.4-0.8,0.6-1.7,0.7-2.6c0.1-0.9,0.2-1.8,0.2-2.7c-0.5,0.8-1,1.5-1.5,2
		c-0.6,0.5-1.1,0.9-1.7,1.2c-0.6,0.3-1.2,0.5-1.8,0.5c-0.6,0.1-1.2,0.1-1.7,0.1c-1.1,0-2-0.1-2.9-0.4c-0.9-0.3-1.6-0.8-2.3-1.4
		c-0.6-0.6-1.1-1.5-1.5-2.5c-0.3-1-0.5-2.3-0.5-3.7c0-0.5,0-1.3,0.1-2.2c0.1-0.9,0.1-1.9,0.2-3c0.1-1.1,0.2-2.4,0.3-3.7
		c0.1-1.3,0.2-2.7,0.3-4c0.1-0.9,0.5-1.3,1.2-1.3h1.4c0.9,0,1.7,0.1,2.2,0.3c0.6,0.2,1,0.4,1.4,0.8c0.3,0.3,0.6,0.7,0.7,1.2
		C72.3,30.6,72.3,31.2,72.3,31.8z"/>
	<path fill="#4A4797" d="M98.2,46.2c0-2.6,1.2-4.6,3.5-6c2.3-1.5,5.7-2.2,10.3-2.4c0-0.3,0-0.6,0.1-0.8c0-0.2,0-0.5,0-0.8
		c0-0.9-0.2-1.6-0.5-2.2c-0.3-0.5-1.1-0.8-2.1-0.8c-0.6,0-1.1,0.1-1.5,0.3c-0.4,0.2-0.7,0.4-0.9,0.7c-0.2,0.3-0.4,0.7-0.6,1.1
		c-0.1,0.4-0.3,0.9-0.4,1.4c-0.1,0.3-0.2,0.4-0.4,0.5c-0.2,0.1-0.5,0.1-0.9,0.1c-2.9,0-4.4-1.1-4.4-3.3c0-0.9,0.2-1.7,0.6-2.5
		c0.4-0.8,1-1.5,1.8-2.1c0.8-0.6,1.8-1.1,3.1-1.4c1.2-0.3,2.7-0.5,4.3-0.5c3.2,0,5.5,0.7,6.9,2c1.4,1.3,2.1,3.2,2.1,5.6
		c0,0.3,0,0.9-0.1,1.7c-0.1,0.8-0.2,1.7-0.3,2.6c-0.1,0.9-0.2,1.8-0.3,2.6c-0.1,0.8-0.1,1.4-0.1,1.7c0,0.7,0.1,1.2,0.4,1.5
		s0.5,0.5,0.9,0.6c0.3,0.1,0.6,0.2,0.9,0.3c0.3,0.1,0.4,0.2,0.4,0.4c0,0.6-0.1,1.3-0.3,1.9c-0.2,0.7-0.5,1.3-0.8,1.8
		c-0.4,0.5-0.9,1-1.6,1.3c-0.7,0.3-1.5,0.5-2.5,0.5c-1.4,0-2.4-0.3-3.1-1c-0.7-0.7-1.1-1.6-1.4-2.7c-0.7,1-1.6,1.9-2.7,2.6
		c-1.1,0.7-2.5,1.1-4.3,1.1c-0.9,0-1.7-0.1-2.4-0.3c-0.8-0.2-1.4-0.5-2-1c-0.6-0.5-1-1.1-1.3-1.8C98.4,48.1,98.2,47.2,98.2,46.2z
		 M111.6,41.3c-0.7,0-1.5,0.1-2.2,0.2c-0.7,0.1-1.4,0.3-1.9,0.5c-0.6,0.2-1,0.6-1.4,1c-0.3,0.4-0.5,0.9-0.5,1.5
		c0,0.7,0.2,1.1,0.6,1.4c0.4,0.3,0.9,0.4,1.4,0.4c0.5,0,0.9-0.1,1.4-0.3c0.5-0.2,0.9-0.5,1.2-0.9c0.4-0.4,0.7-0.9,0.9-1.5
		S111.5,42.1,111.6,41.3z"/>
	<path fill="#4A4797" d="M154.4,51.4c-0.9,0-1.6-0.1-2.2-0.3c-0.6-0.2-1-0.5-1.3-0.8c-0.3-0.3-0.6-0.8-0.7-1.3
		c-0.1-0.5-0.2-1.1-0.2-1.7c0-0.4,0-0.8,0-1.1c0-0.4,0-0.9,0.1-1.7c0.1-0.7,0.1-1.7,0.2-3c0.1-1.2,0.2-2.9,0.4-5h-5.2
		c-0.1,0.9-0.1,1.8-0.2,2.8c-0.1,1-0.2,2-0.3,3c-0.1,1-0.2,2-0.2,3c-0.1,1-0.1,1.8-0.2,2.6c-0.1,0.7-0.1,1.4-0.2,1.8
		c0,0.5-0.1,0.7-0.1,0.8c0,0.3-0.1,0.6-0.2,0.7s-0.4,0.2-0.7,0.2h-1.5c-0.8,0-1.4-0.1-2-0.2c-0.5-0.1-1-0.3-1.3-0.6
		c-0.3-0.3-0.6-0.8-0.7-1.3c-0.1-0.6-0.2-1.3-0.2-2.2c0.1-1.1,0.2-2.2,0.3-3.3c0.1-1,0.1-2.1,0.2-3.4c0.1-1.2,0.2-2.5,0.3-3.8h-6
		c-0.1,0.9-0.1,1.8-0.2,2.8c-0.1,1-0.2,2-0.3,3c-0.1,1-0.2,2-0.2,3c-0.1,1-0.1,1.8-0.2,2.6c-0.1,0.7-0.1,1.4-0.1,1.8
		c0,0.5-0.1,0.7-0.1,0.8c0,0.3-0.1,0.6-0.2,0.7c-0.1,0.1-0.4,0.2-0.7,0.2h-1.5c-0.8,0-1.4-0.1-2-0.2c-0.5-0.1-1-0.3-1.3-0.6
		c-0.3-0.3-0.6-0.8-0.7-1.3c-0.1-0.6-0.2-1.3-0.2-2.2c0.1-1.1,0.1-2.3,0.3-3.4c0.1-1,0.1-2.1,0.2-3.3c0.1-1.2,0.2-2.5,0.3-3.7h-2.1
		c-0.3,0-0.5-0.2-0.5-0.5l0.1-2.3c0-0.3,0.1-0.7,0.2-1.1c0.1-0.4,0.2-0.7,0.4-0.9c0.2-0.3,0.5-0.5,0.8-0.7c0.4-0.2,0.9-0.3,1.5-0.3
		c0-0.2,0-0.4,0-0.5c0.2-1.9,0.6-3.4,1.2-4.7c0.6-1.3,1.4-2.3,2.4-3.1c1-0.8,2.1-1.4,3.3-1.7c1.2-0.3,2.6-0.5,3.9-0.5
		c2.3,0,4.1,0.4,5.6,1.1c0.9-0.8,2.1-1.4,3.3-1.8c1.3-0.4,2.7-0.5,4.4-0.5c1.6,0,2.9,0.1,4,0.4c1.1,0.3,2,0.7,2.7,1.1
		c0.7,0.5,1.2,1.1,1.5,1.7c0.3,0.6,0.5,1.3,0.5,2c0,1.5-0.5,2.5-1.4,3.2c-0.9,0.6-2.2,0.9-3.8,0.9c-0.4,0-0.7,0-0.9-0.1
		c-0.2-0.1-0.2-0.2-0.2-0.5c0-0.5,0-0.9-0.1-1.3c0-0.4-0.2-0.7-0.3-1c-0.2-0.3-0.4-0.5-0.8-0.6c-0.3-0.1-0.8-0.2-1.4-0.2
		c-0.7,0-1.3,0.2-1.8,0.5c-0.5,0.3-0.9,0.8-1.2,1.4c-0.3,0.6-0.6,1.2-0.7,1.9c-0.2,0.7-0.3,1.4-0.4,2.2h7.8c0.9,0,1.6,0.1,2.1,0.3
		c0.5,0.2,1,0.5,1.3,0.8c0.3,0.3,0.5,0.8,0.7,1.2c0.1,0.5,0.2,1,0.2,1.6c0,0.4,0,0.9,0,1.5c0,0.5-0.1,1.4-0.2,2.5
		c-0.1,1.1-0.2,2.6-0.3,4.5c-0.1,1.9-0.3,4.4-0.6,7.4c0,0.3-0.1,0.6-0.2,0.7c-0.1,0.1-0.4,0.2-0.7,0.2H154.4z M136.9,26.1
		c-0.6,0-1.1,0.1-1.6,0.4c-0.4,0.2-0.8,0.6-1.1,1s-0.5,0.9-0.7,1.5c-0.2,0.6-0.3,1.2-0.4,1.8h5.9l0.2-1.7c0-0.9-0.2-1.6-0.5-2.2
		C138.4,26.4,137.8,26.1,136.9,26.1z"/>
	<path fill="#4A4797" d="M176,47.7c0-0.6,0-1.5,0.2-2.5c0.1-1,0.2-2.1,0.3-3.2c0.1-1.1,0.2-2.2,0.3-3.3c0.1-1.1,0.1-1.9,0.1-2.7
		c0-0.7-0.2-1.4-0.5-2c-0.4-0.6-1.1-0.9-2.1-0.9c-1,0-1.8,0.2-2.5,0.7c-0.7,0.5-1.2,1.4-1.7,2.7s-0.8,3.1-1.1,5.3
		c-0.3,2.3-0.6,5.2-0.8,8.7c0,0.3-0.1,0.6-0.2,0.7s-0.4,0.2-0.7,0.2h-1.5c-0.9,0-1.6-0.1-2.2-0.3c-0.6-0.2-1-0.5-1.3-0.8
		c-0.3-0.3-0.6-0.8-0.7-1.3c-0.1-0.5-0.2-1.1-0.2-1.7c0-0.4,0-1,0.1-1.8c0-0.8,0.1-1.9,0.2-3.3c0.1-1.4,0.3-3.1,0.4-5.3
		c0.2-2.1,0.3-4.8,0.6-7.9c0-0.6,0.1-1,0.2-1.1c0.1-0.1,0.3-0.1,0.7-0.1h1.7c0.9,0,1.6,0.1,2.1,0.3c0.6,0.2,1,0.5,1.4,0.8
		c0.3,0.3,0.6,0.7,0.7,1.2c0.1,0.4,0.2,0.9,0.3,1.4c0.9-1.5,1.9-2.6,3-3.2c1.1-0.6,2.6-0.9,4.3-0.9c1.2,0,2.2,0.1,3.1,0.4
		c0.9,0.3,1.6,0.7,2.2,1.3c0.6,0.6,1,1.4,1.3,2.4c0.3,1,0.4,2.2,0.4,3.7c0,0.5,0,1.1-0.1,2c-0.1,0.9-0.1,1.8-0.2,2.8
		c-0.1,1-0.2,2.1-0.3,3.2c-0.1,1.1-0.2,2.1-0.3,3.1c-0.1,0.9-0.2,1.8-0.2,2.5c-0.1,0.7-0.1,1.2-0.1,1.4c0,0.6-0.1,1-0.2,1.1
		c-0.1,0.1-0.5,0.2-0.9,0.2h-1.4c-0.9,0-1.7-0.1-2.2-0.3c-0.6-0.2-1-0.4-1.3-0.7c-0.3-0.3-0.5-0.7-0.7-1.2
		C176.1,48.8,176,48.3,176,47.7z"/>
	<path fill="#4A4797" d="M192.4,51.4c-0.9,0-1.6-0.1-2.2-0.3c-0.6-0.2-1-0.5-1.3-0.8c-0.3-0.3-0.6-0.8-0.7-1.3
		c-0.1-0.5-0.2-1.1-0.2-1.7c0-0.4,0-1,0.1-1.8c0-0.8,0.1-1.9,0.2-3.3c0.1-1.4,0.3-3.1,0.4-5.3c0.2-2.1,0.3-4.8,0.6-7.9
		c0-0.6,0.1-1,0.2-1.1c0.1-0.1,0.3-0.1,0.7-0.1h1.7c0.9,0,1.6,0.1,2.2,0.3c0.6,0.2,1,0.4,1.3,0.8c0.3,0.3,0.6,0.8,0.7,1.2
		c0.1,0.5,0.2,1,0.2,1.6c0,0.4,0,1.1-0.1,1.9c-0.1,0.9-0.1,2-0.2,3.5c-0.1,1.5-0.2,3.3-0.4,5.5s-0.4,4.8-0.6,7.9
		c0,0.3-0.1,0.6-0.2,0.7s-0.4,0.2-0.7,0.2H192.4z M189.3,22.8c0-1.1,0.4-2,1.2-2.7c0.8-0.7,1.9-1,3.3-1c1.2,0,2.1,0.3,2.7,0.8
		c0.6,0.5,0.8,1.2,0.8,2c0,1.1-0.4,1.9-1.2,2.6c-0.8,0.7-1.9,1.1-3.5,1.1C190.5,25.5,189.3,24.6,189.3,22.8z"/>
	<path fill="#4A4797" d="M209.2,33.6c-0.1,1.1-0.2,2.2-0.3,3.2c-0.1,1.1-0.2,2.1-0.3,3c-0.1,0.9-0.2,1.8-0.2,2.5
		c0,0.7-0.1,1.3-0.1,1.7c0,0.7,0.1,1.2,0.3,1.5c0.2,0.2,0.5,0.4,0.9,0.4c0.3,0,0.6-0.1,0.8-0.2c0.2-0.1,0.4-0.2,0.6-0.4
		c0.2-0.1,0.4-0.3,0.5-0.4c0.2-0.1,0.3-0.2,0.5-0.2c0.2,0,0.4,0.1,0.6,0.3s0.3,0.8,0.3,1.6c0,1.6-0.4,2.8-1.3,3.7s-2.3,1.4-4.4,1.4
		c-2.1,0-3.6-0.5-4.6-1.4c-1-1-1.5-2.4-1.5-4.4c0-0.4,0-0.9,0.1-1.5c0-0.6,0.1-1.4,0.2-2.3c0.1-0.9,0.2-2.1,0.3-3.5
		c0.1-1.4,0.3-3.1,0.4-5.1h-2.3c-0.2,0-0.4,0-0.4-0.2c0-0.1-0.1-0.3-0.1-0.5l0.1-2.2c0-0.4,0.1-0.7,0.2-1.1c0.1-0.4,0.2-0.7,0.4-1
		c0.2-0.3,0.5-0.5,0.9-0.7c0.4-0.2,0.9-0.3,1.6-0.3c0.2-0.5,0.4-1.1,0.7-1.8c0.3-0.7,0.5-1.4,0.8-2.1c0.3-0.7,0.5-1.2,0.8-1.7
		c0.2-0.5,0.5-0.7,0.7-0.7h1.2c1.2,0,2,0.4,2.5,1.1c0.5,0.7,0.7,1.6,0.7,2.7c0,0.6,0,1.4-0.1,2.5h4.5c0.5,0,0.7,0.2,0.7,0.6
		l-0.2,2.3c-0.1,0.9-0.3,1.6-0.7,2.1c-0.4,0.5-1.3,0.8-2.6,0.8H209.2z"/>
	<path fill="#4A4797" d="M225.3,31.8c0,0.7,0,1.4-0.1,2.3c-0.1,0.9-0.2,1.8-0.3,2.7c-0.1,0.9-0.2,1.7-0.3,2.5
		c-0.1,0.8-0.1,1.4-0.1,1.8c0,1.1,0.3,1.9,0.8,2.4c0.5,0.5,1.2,0.8,2,0.8c1.3,0,2.4-0.7,3.2-2.1c0.8-1.4,1.3-3.3,1.5-5.6l0.7-8
		c0-0.3,0.1-0.5,0.3-0.7c0.2-0.1,0.4-0.2,0.6-0.2h1.5c0.6,0,1.2,0,1.7,0.1c0.5,0.1,1,0.3,1.4,0.6c0.4,0.3,0.7,0.6,0.9,1.1
		c0.2,0.5,0.3,1,0.3,1.8c0,0.3,0,0.8-0.1,1.6c0,0.8-0.1,1.9-0.2,3.4c-0.1,1.5-0.2,3.3-0.4,5.6s-0.4,5-0.6,8.2
		c-0.1,1.9-0.6,3.5-1.3,4.7c-0.7,1.2-1.6,2.2-2.6,3s-2.2,1.2-3.6,1.5c-1.3,0.3-2.7,0.4-4,0.4c-1.5,0-2.8-0.1-4-0.4
		c-1.2-0.3-2.3-0.6-3.2-1.1c-0.9-0.5-1.6-1-2.1-1.6c-0.5-0.6-0.8-1.2-0.8-1.9c0-0.5,0.1-1,0.4-1.4c0.2-0.4,0.6-0.7,1-1
		s0.9-0.5,1.4-0.6c0.5-0.1,1.1-0.2,1.7-0.2c0.3,0,0.5,0.1,0.6,0.4c0.1,0.3,0.3,0.6,0.6,1c0.3,0.4,0.7,0.7,1.3,1
		c0.6,0.3,1.5,0.4,2.7,0.4c1.1,0,1.9-0.3,2.6-0.8c0.7-0.5,1.2-1.2,1.5-2c0.4-0.8,0.6-1.7,0.7-2.6c0.1-0.9,0.2-1.8,0.2-2.7
		c-0.5,0.8-1,1.5-1.5,2c-0.6,0.5-1.1,0.9-1.7,1.2c-0.6,0.3-1.2,0.5-1.8,0.5c-0.6,0.1-1.2,0.1-1.7,0.1c-1.1,0-2-0.1-2.9-0.4
		c-0.9-0.3-1.6-0.8-2.3-1.4c-0.6-0.6-1.1-1.5-1.5-2.5c-0.3-1-0.5-2.3-0.5-3.7c0-0.5,0-1.3,0.1-2.2c0.1-0.9,0.1-1.9,0.2-3
		c0.1-1.1,0.2-2.4,0.3-3.7c0.1-1.3,0.2-2.7,0.3-4c0.1-0.9,0.5-1.3,1.2-1.3h1.4c0.9,0,1.7,0.1,2.2,0.3c0.6,0.2,1,0.4,1.4,0.8
		c0.3,0.3,0.5,0.7,0.7,1.2C225.2,30.6,225.3,31.2,225.3,31.8z"/>
</g>
</svg>
